<svg xmlns="http://www.w3.org/2000/svg" viewBox="0 0 64 64" role="img" aria-labelledby="title desc">
  <title id="title">CourseUp favicon</title>
  <desc id="desc">A stylized course library icon with a teal bookmark accent.</desc>
  <defs>
    <linearGradient id="bg" x1="12" y1="8" x2="52" y2="56" gradientUnits="userSpaceOnUse">
      <stop offset="0" stop-color="#1d2d28" />
      <stop offset="1" stop-color="#0f1413" />
    </linearGradient>
    <linearGradient id="spine" x1="21" y1="14" x2="43" y2="50" gradientUnits="userSpaceOnUse">
      <stop offset="0" stop-color="#76b8a8" />
      <stop offset="1" stop-color="#3d8d7a" />
    </linearGradient>
  </defs>
  <rect x="6" y="6" width="52" height="52" rx="16" fill="url(#bg)" />
  <path
    d="M22 16.5c0-1.38 1.12-2.5 2.5-2.5H40c1.38 0 2.5 1.12 2.5 2.5v24.24c0 .8-.37 1.56-1 2.03l-6.25 4.69a2.5 2.5 0 0 1-3 0L26 42.77a2.53 2.53 0 0 0-3.99 2.03V16.5Z"
    fill="url(#spine)"
  />
  <path
    d="M24.5 18A2.5 2.5 0 0 1 27 15.5h14A2.5 2.5 0 0 1 43.5 18v24.13c0 .95-.44 1.85-1.18 2.42l-6.18 4.75a2.5 2.5 0 0 1-3.05.02l-4.88-3.71c-.82-.62-1.95-.04-1.95.99V20a2 2 0 0 0-2-2Z"
    fill="#f2f7f4"
    opacity=".95"
  />
  <path d="M29 22h10.5" stroke="#1a2723" stroke-linecap="round" stroke-width="2.75" opacity=".22" />
  <path d="M29 28h10.5" stroke="#1a2723" stroke-linecap="round" stroke-width="2.75" opacity=".22" />
  <path d="M29 34h7.5" stroke="#1a2723" stroke-linecap="round" stroke-width="2.75" opacity=".22" />
  <path
    d="M20.5 20.5c0-1.1.9-2 2-2H27a2 2 0 0 1 2 2v22.5a2 2 0 0 1-2 2h-4.5a2 2 0 0 1-2-2v-22.5Z"
    fill="#22312c"
  />
  <path
    d="M20.5 39.5h8.5"
    stroke="#76b8a8"
    stroke-linecap="round"
    stroke-width="2.5"
  />
  <circle cx="46" cy="18" r="4" fill="#76b8a8" />
</svg>
